<svg xmlns="http://www.w3.org/2000/svg" xmlns:svgjs="http://svgjs.com/svgjs" xmlns:xlink="http://www.w3.org/1999/xlink" width="288" height="288"><svg xmlns="http://www.w3.org/2000/svg" width="288" height="288" enable-background="new 0 0 122.88 63.59" viewBox="0 0 122.88 63.59"><path fill-rule="evenodd" d="M2.54,58.52h12.59c-0.93-0.24-1.63-1.1-1.63-2.1V2.17C13.5,0.98,14.48,0,15.67,0h90.97 c1.2,0,2.17,0.98,2.17,2.17v54.24c0,1.01-0.69,1.86-1.63,2.1h13.16c1.4,0,2.54,1.14,2.54,2.54l0,0c0,1.4-1.14,2.54-2.54,2.54H2.54 c-1.4,0-2.54-1.14-2.54-2.54l0,0C0,59.66,1.14,58.52,2.54,58.52L2.54,58.52L2.54,58.52z M43.38,55.8l0.22-31.05l0.41-0.84 l5.98-12.27l0.51-1.05l0.54,1.04L57.4,23.9l0.44,0.86l0.2,31.05h11.05l2.7-27.49l5.43,0.32l0.96,27.17h26.35V4.26H18.07V55.8H43.38 L43.38,55.8z M51.86,15.75h-2.56l-3.81,7.83h10.43L51.86,15.75L51.86,15.75L51.86,15.75L51.86,15.75z M74.64,26.58 c-4.42-0.22-6.18-2-5.37-5.22c0.19-0.76,1.34-3.77,0.79-6.38c-0.54-2.56-2.87-4.76-2.81-4.84C71.42,12.93,87.43,25.8,74.64,26.58 L74.64,26.58L74.64,26.58L74.64,26.58z M57.87,59.47h7.14c0.67,0,1.22,0.55,1.22,1.22l0,0c0,0.67-0.55,1.22-1.22,1.22h-7.14 c-0.67,0-1.22-0.55-1.22-1.22l0,0C56.65,60.01,57.2,59.47,57.87,59.47L57.87,59.47L57.87,59.47z" class="color000 svgShape" clip-rule="evenodd"/></svg></svg>