<svg xmlns="http://www.w3.org/2000/svg" xmlns:xlink="http://www.w3.org/1999/xlink" version="1.1" width="1000" height="1000" viewBox="0 0 1000 1000" xml:space="preserve">
<desc>Created with Fabric.js 3.5.0</desc>
<defs>
</defs>
<rect x="0" y="0" width="100%" height="100%" fill="#ffffff"/>
<g transform="matrix(7.3982 0 0 7.3982 499.9999 499.9999)" id="2185">
<g style="" vector-effect="non-scaling-stroke">
		<g transform="matrix(1 0 0 1 -0.193 0.0025)" id="Layer_1">
<path style="stroke: none; stroke-width: 1; stroke-dasharray: none; stroke-linecap: butt; stroke-dashoffset: 0; stroke-linejoin: miter; stroke-miterlimit: 4; is-custom-font: none; font-file-url: none; fill: rgb(0,0,0); fill-rule: evenodd; opacity: 1;" transform=" translate(-61.247, -35.1975)" d="M 16.3 0 H 106 a 2.15 2.15 0 0 1 2.14 2.14 V 39.52 l -3.36 -2.27 V 8.91 h -87 V 61.35 h 87 V 55.77 l 3.36 1.51 v 5.19 a 2.19 2.19 0 0 1 -0.39 1.23 h 11.76 a 3.35 3.35 0 0 1 0 6.69 H 3.35 a 3.35 3.35 0 1 1 0 -6.69 h 11.2 a 2.12 2.12 0 0 1 -0.39 -1.23 V 2.14 A 2.14 2.14 0 0 1 16.3 0 Z M 28.74 3.45 a 1.29 1.29 0 1 1 -1.29 1.29 a 1.29 1.29 0 0 1 1.29 -1.29 Z m -4.51 0 a 1.29 1.29 0 1 1 -1.29 1.29 a 1.29 1.29 0 0 1 1.29 -1.29 Z m -4.51 0 a 1.29 1.29 0 1 1 -1.29 1.29 a 1.29 1.29 0 0 1 1.29 -1.29 Z m 38.2 62 h 7 a 1.2 1.2 0 0 1 1.2 1.2 h 0 a 1.2 1.2 0 0 1 -1.2 1.2 h -7 a 1.2 1.2 0 0 1 -1.2 -1.2 h 0 a 1.2 1.2 0 0 1 1.2 -1.2 Z" stroke-linecap="round"/>
</g>
		<g transform="matrix(1 0 0 1 -6.565 4.585)" id="Layer_1">
<path style="stroke: none; stroke-width: 1; stroke-dasharray: none; stroke-linecap: butt; stroke-dashoffset: 0; stroke-linejoin: miter; stroke-miterlimit: 4; is-custom-font: none; font-file-url: none; fill: rgb(204,204,204); fill-rule: evenodd; opacity: 1;" transform=" translate(-54.875, -39.78)" d="M 37.25 45.05 c -0.92 0 -0.92 -3.42 0 -3.42 H 74.17 a 10.55 10.55 0 0 0 5.17 1.82 a 11 11 0 0 0 4.14 -0.37 l 1.89 2 Z m -11.89 0 c -0.91 0 -0.91 -3.42 0 -3.42 H 34 c 0.91 0 0.91 3.42 0 3.42 Z m -0.29 -7.15 c -0.92 0 -0.92 -3.42 0 -3.42 H 33.7 c 0.91 0 0.91 3.42 0 3.42 Z m 12.18 0 c -0.92 0 -0.92 -3.42 0 -3.42 H 69.3 l 0.1 0.22 c 0.51 1.1 1 2.18 1.59 3.2 Z" stroke-linecap="round"/>
</g>
		<g transform="matrix(1 0 0 1 25.25 -14.0255)" id="Layer_1">
<path style="stroke: none; stroke-width: 1; stroke-dasharray: none; stroke-linecap: butt; stroke-dashoffset: 0; stroke-linejoin: miter; stroke-miterlimit: 4; is-custom-font: none; font-file-url: none; fill: rgb(81,72,151); fill-rule: evenodd; opacity: 1;" transform=" translate(-86.69, -21.1696)" d="M 78.16 13 h 17 A 2.77 2.77 0 0 1 98 15.73 V 26.58 a 2.77 2.77 0 0 1 -2.76 2.76 H 89.51 a 11.07 11.07 0 0 0 -1.75 -2.49 A 15.21 15.21 0 0 0 80 22.55 a 21.7 21.7 0 0 0 -4.62 -0.5 V 15.73 A 2.77 2.77 0 0 1 78.16 13 Z" stroke-linecap="round"/>
</g>
		<g transform="matrix(1 0 0 1 -0.26 -14.015)" id="Layer_1">
<path style="stroke: none; stroke-width: 1; stroke-dasharray: none; stroke-linecap: butt; stroke-dashoffset: 0; stroke-linejoin: miter; stroke-miterlimit: 4; is-custom-font: none; font-file-url: none; fill: rgb(81,72,151); fill-rule: evenodd; opacity: 1;" transform=" translate(-61.18, -21.18)" d="M 52.68 13 h 17 a 2.77 2.77 0 0 1 2.75 2.76 v 6.45 c -1.39 0.14 -2.67 0.34 -3.74 0.54 A 4.53 4.53 0 0 0 65.1 28 a 4.4 4.4 0 0 0 0.48 1.36 H 52.68 a 2.76 2.76 0 0 1 -2.75 -2.76 V 15.73 A 2.76 2.76 0 0 1 52.68 13 Z" stroke-linecap="round"/>
</g>
		<g transform="matrix(1 0 0 1 -25.695 -14.0251)" id="Layer_1">
<path style="stroke: none; stroke-width: 1; stroke-dasharray: none; stroke-linecap: butt; stroke-dashoffset: 0; stroke-linejoin: miter; stroke-miterlimit: 4; is-custom-font: none; font-file-url: none; fill: rgb(81,72,151); fill-rule: evenodd; opacity: 1;" transform=" translate(-35.745, -21.1699)" d="M 27.2 13 h 17 A 2.77 2.77 0 0 1 47 15.73 V 26.58 a 2.78 2.78 0 0 1 -2.76 2.76 h -17 a 2.76 2.76 0 0 1 -2.75 -2.76 V 15.73 A 2.76 2.76 0 0 1 27.2 13 Z" stroke-linecap="round"/>
</g>
		<g transform="matrix(1 0 0 1 32.7395 5.9903)" id="Layer_1">
<path style="stroke: none; stroke-width: 1; stroke-dasharray: none; stroke-linecap: butt; stroke-dashoffset: 0; stroke-linejoin: miter; stroke-miterlimit: 4; is-custom-font: none; font-file-url: none; fill: rgb(0,0,0); fill-rule: evenodd; opacity: 1;" transform=" translate(-94.1795, -41.1853)" d="M 69.55 27.17 c 4.64 3.09 4 11.12 10.26 11.78 a 6.49 6.49 0 0 0 4.93 -1.61 a 4.15 4.15 0 0 0 1.34 -2.7 c 0.4 -4.15 -3.4 -6.86 -7 -7.68 a 24.48 24.48 0 0 0 -9.48 0.21 Z m 19 8.21 a 6.25 6.25 0 0 1 -2.33 4 l 4.78 5 a 18.69 18.69 0 0 0 4.64 -8.07 a 31.63 31.63 0 0 1 -7.09 -0.95 Z m 8.29 1.93 a 21 21 0 0 1 -4.48 7.93 l 22.17 9.95 a 6.26 6.26 0 0 0 1.46 0.54 a 2.36 2.36 0 0 0 2.74 -2.92 a 2.77 2.77 0 0 0 -1.21 -1.45 l -20.68 -14 Z" stroke-linecap="round"/>
</g>
</g>
</g>
</svg>